# This file uses meters as units for non-parametric coordinates.

mtllib OBJ_Tree1.mtl
g default
v -76.332253 1.215837 -625.572144
v -23.667747 1.215845 -625.572144
v -76.332253 51.332253 -625.572144
v -23.667747 51.332253 -625.572144
v -76.332253 51.332253 -678.236633
v -23.667747 51.332253 -678.236633
v -76.332253 1.215837 -678.236633
v -23.667747 1.215845 -678.236633
v -100.000000 50.001175 -601.904419
v 0.000000 50.001190 -601.904419
v -100.000000 200.000000 -601.904419
v 0.000000 200.000000 -601.904419
v -100.000000 200.000000 -701.904419
v 0.000000 200.000000 -701.904419
v -100.000000 50.001175 -701.904419
v 0.000000 50.001190 -701.904419
vt 0.689941 0.039969
vt 0.811894 0.039969
vt 0.811894 0.238706
vt 0.689941 0.238706
vt 0.811894 0.238706
vt 0.689941 0.238706
vt 0.811894 0.039969
vt 0.689941 0.039969
vt 0.032439 0.061190
vt 0.139491 0.061190
vt 0.139491 0.292904
vt 0.032439 0.292904
vt 0.139491 0.292904
vt 0.032439 0.292904
vt 0.139491 0.061190
vt 0.032439 0.061190
vn 0.000000 0.000000 1.000000
vn 0.000000 0.000000 1.000000
vn 0.000000 0.000000 1.000000
vn 0.000000 0.000000 1.000000
vn 0.000000 1.000000 0.000000
vn 0.000000 1.000000 0.000000
vn 0.000000 1.000000 0.000000
vn 0.000000 1.000000 0.000000
vn 0.000000 0.000000 -1.000000
vn 0.000000 0.000000 -1.000000
vn 0.000000 0.000000 -1.000000
vn 0.000000 0.000000 -1.000000
vn 0.000000 -1.000000 0.000000
vn 0.000000 -1.000000 0.000000
vn 0.000000 -1.000000 0.000000
vn 0.000000 -1.000000 0.000000
vn 1.000000 0.000000 0.000000
vn 1.000000 0.000000 0.000000
vn 1.000000 0.000000 0.000000
vn 1.000000 0.000000 0.000000
vn -1.000000 0.000000 0.000000
vn -1.000000 0.000000 0.000000
vn -1.000000 0.000000 0.000000
vn -1.000000 0.000000 0.000000
vn 0.000000 0.000000 1.000000
vn 0.000000 0.000000 1.000000
vn 0.000000 0.000000 1.000000
vn 0.000000 0.000000 1.000000
vn 0.000000 1.000000 0.000000
vn 0.000000 1.000000 0.000000
vn 0.000000 1.000000 0.000000
vn 0.000000 1.000000 0.000000
vn 0.000000 0.000000 -1.000000
vn 0.000000 0.000000 -1.000000
vn 0.000000 0.000000 -1.000000
vn 0.000000 0.000000 -1.000000
vn 0.000000 -1.000000 0.000000
vn 0.000000 -1.000000 0.000000
vn 0.000000 -1.000000 0.000000
vn 0.000000 -1.000000 0.000000
vn 1.000000 0.000000 0.000000
vn 1.000000 0.000000 0.000000
vn 1.000000 0.000000 0.000000
vn 1.000000 0.000000 0.000000
vn -1.000000 0.000000 0.000000
vn -1.000000 0.000000 0.000000
vn -1.000000 0.000000 0.000000
vn -1.000000 0.000000 0.000000
s off
g polySurface79
usemtl initialShadingGroup
f 1/1/1 2/2/2 4/3/3 3/4/4
f 3/4/5 4/3/6 6/5/7 5/6/8
f 5/6/9 6/5/10 8/7/11 7/8/12
f 7/8/13 8/7/14 2/2/15 1/1/16
f 2/2/17 8/7/18 6/5/19 4/3/20
f 7/8/21 1/1/22 3/4/23 5/6/24
f 9/9/25 10/10/26 12/11/27 11/12/28
f 11/12/29 12/11/30 14/13/31 13/14/32
f 13/14/33 14/13/34 16/15/35 15/16/36
f 15/16/37 16/15/38 10/10/39 9/9/40
f 10/10/41 16/15/42 14/13/43 12/11/44
f 15/16/45 9/9/46 11/12/47 13/14/48
