# This file uses meters as units for non-parametric coordinates.

mtllib OBJ_sten1.mtl
g default
v -1359.663285 -0.831757 35.000000
v -1289.663285 -0.831757 35.000000
v -1359.663285 20.643511 35.000000
v -1289.663285 20.643511 35.000000
v -1359.663285 20.643511 -35.000000
v -1289.663285 20.643511 -35.000000
v -1359.663285 -0.831757 -35.000000
v -1289.663285 -0.831757 -35.000000
v -1352.460042 38.233601 -15.840493
v -1342.293275 38.233601 -15.840493
v -1352.460042 48.036816 -15.840493
v -1342.293275 48.036816 -15.840493
v -1352.460042 48.036816 -26.238808
v -1342.293275 48.036816 -26.238808
v -1352.460042 38.233601 -26.238808
v -1342.293275 38.233601 -26.238808
v -1340.990830 38.233601 20.395691
v -1317.949984 38.233601 20.395691
v -1340.990830 48.036816 20.395691
v -1317.949984 48.036816 20.395691
v -1340.990830 48.036816 -2.662366
v -1317.949984 48.036816 -2.662366
v -1340.990830 38.233601 -2.662366
v -1317.949984 38.233601 -2.662366
v -1356.752221 20.091810 24.630798
v -1314.872847 20.091810 24.630798
v -1356.752221 38.322952 24.630798
v -1314.872847 38.322952 24.630798
v -1356.752221 38.322952 -11.846527
v -1314.872847 38.322952 -11.846527
v -1356.752221 20.091810 -11.846527
v -1314.872847 20.091810 -11.846527
v -1356.727967 20.091810 -11.792300
v -1290.966599 20.091810 -11.792300
v -1356.727967 38.322952 -11.792300
v -1290.966599 38.322952 -11.792300
v -1356.727967 38.322952 -30.012802
v -1290.966599 38.322952 -30.012802
v -1356.727967 20.091810 -30.012802
v -1290.966599 20.091810 -30.012802
v -1315.078050 20.496521 11.768637
v -1304.911286 20.496521 11.768637
v -1315.078050 30.299736 11.768637
v -1304.911286 30.299736 11.768637
v -1315.078050 30.299736 1.370323
v -1304.911286 30.299736 1.370323
v -1315.078050 20.496521 1.370323
v -1304.911286 20.496521 1.370323
vt 0.286264 0.777864
vt 0.336895 0.777864
vt 0.286264 0.828494
vt 0.336895 0.828494
vt 0.286264 0.879125
vt 0.336895 0.879125
vt 0.286264 0.929755
vt 0.336895 0.929755
vt 0.387525 0.777864
vt 0.387525 0.828494
vt 0.235634 0.777864
vt 0.235634 0.828494
vt 0.286264 0.777864
vt 0.336895 0.777864
vt 0.336895 0.828494
vt 0.286264 0.828494
vt 0.336895 0.879125
vt 0.286264 0.879125
vt 0.336895 0.929755
vt 0.286264 0.929755
vt 0.387525 0.777864
vt 0.387525 0.828494
vt 0.235634 0.777864
vt 0.235634 0.828494
vt 0.286264 0.777864
vt 0.336895 0.777864
vt 0.336895 0.828494
vt 0.286264 0.828494
vt 0.336895 0.879125
vt 0.286264 0.879125
vt 0.336895 0.929755
vt 0.286264 0.929755
vt 0.387525 0.777864
vt 0.387525 0.828494
vt 0.235634 0.777864
vt 0.235634 0.828494
vt 0.286264 0.777864
vt 0.336895 0.777864
vt 0.336895 0.828494
vt 0.286264 0.828494
vt 0.336895 0.879125
vt 0.286264 0.879125
vt 0.336895 0.929755
vt 0.286264 0.929755
vt 0.387525 0.777864
vt 0.387525 0.828494
vt 0.235634 0.777864
vt 0.235634 0.828494
vt 0.286264 0.777864
vt 0.336895 0.777864
vt 0.336895 0.828494
vt 0.286264 0.828494
vt 0.336895 0.879125
vt 0.286264 0.879125
vt 0.336895 0.929755
vt 0.286264 0.929755
vt 0.387525 0.777864
vt 0.387525 0.828494
vt 0.235634 0.777864
vt 0.235634 0.828494
vt 0.286264 0.777864
vt 0.336895 0.777864
vt 0.336895 0.828494
vt 0.286264 0.828494
vt 0.336895 0.879125
vt 0.286264 0.879125
vt 0.336895 0.929755
vt 0.286264 0.929755
vt 0.387525 0.777864
vt 0.387525 0.828494
vt 0.235634 0.777864
vt 0.235634 0.828494
vn 0.000000 0.000000 1.000000
vn 0.000000 0.000000 1.000000
vn 0.000000 0.000000 1.000000
vn 0.000000 0.000000 1.000000
vn 0.000000 1.000000 0.000000
vn 0.000000 1.000000 0.000000
vn 0.000000 1.000000 0.000000
vn 0.000000 1.000000 0.000000
vn 0.000000 0.000000 -1.000000
vn 0.000000 0.000000 -1.000000
vn 0.000000 0.000000 -1.000000
vn 0.000000 0.000000 -1.000000
vn 1.000000 0.000000 0.000000
vn 1.000000 0.000000 0.000000
vn 1.000000 0.000000 0.000000
vn 1.000000 0.000000 0.000000
vn -1.000000 0.000000 0.000000
vn -1.000000 0.000000 0.000000
vn -1.000000 0.000000 0.000000
vn -1.000000 0.000000 0.000000
vn 0.000000 0.000000 1.000000
vn 0.000000 0.000000 1.000000
vn 0.000000 0.000000 1.000000
vn 0.000000 0.000000 1.000000
vn 0.000000 1.000000 0.000000
vn 0.000000 1.000000 0.000000
vn 0.000000 1.000000 0.000000
vn 0.000000 1.000000 0.000000
vn 0.000000 0.000000 -1.000000
vn 0.000000 0.000000 -1.000000
vn 0.000000 0.000000 -1.000000
vn 0.000000 0.000000 -1.000000
vn 1.000000 0.000000 0.000000
vn 1.000000 0.000000 0.000000
vn 1.000000 0.000000 0.000000
vn 1.000000 0.000000 0.000000
vn -1.000000 0.000000 0.000000
vn -1.000000 0.000000 0.000000
vn -1.000000 0.000000 0.000000
vn -1.000000 0.000000 0.000000
vn 0.000000 0.000000 1.000000
vn 0.000000 0.000000 1.000000
vn 0.000000 0.000000 1.000000
vn 0.000000 0.000000 1.000000
vn 0.000000 1.000000 0.000000
vn 0.000000 1.000000 0.000000
vn 0.000000 1.000000 0.000000
vn 0.000000 1.000000 0.000000
vn 0.000000 0.000000 -1.000000
vn 0.000000 0.000000 -1.000000
vn 0.000000 0.000000 -1.000000
vn 0.000000 0.000000 -1.000000
vn 1.000000 0.000000 0.000000
vn 1.000000 0.000000 0.000000
vn 1.000000 0.000000 0.000000
vn 1.000000 0.000000 0.000000
vn -1.000000 0.000000 0.000000
vn -1.000000 0.000000 0.000000
vn -1.000000 0.000000 0.000000
vn -1.000000 0.000000 0.000000
vn 0.000000 0.000000 1.000000
vn 0.000000 0.000000 1.000000
vn 0.000000 0.000000 1.000000
vn 0.000000 0.000000 1.000000
vn 0.000000 1.000000 0.000000
vn 0.000000 1.000000 0.000000
vn 0.000000 1.000000 0.000000
vn 0.000000 1.000000 0.000000
vn 0.000000 0.000000 -1.000000
vn 0.000000 0.000000 -1.000000
vn 0.000000 0.000000 -1.000000
vn 0.000000 0.000000 -1.000000
vn 1.000000 0.000000 0.000000
vn 1.000000 0.000000 0.000000
vn 1.000000 0.000000 0.000000
vn 1.000000 0.000000 0.000000
vn -1.000000 0.000000 0.000000
vn -1.000000 0.000000 0.000000
vn -1.000000 0.000000 0.000000
vn -1.000000 0.000000 0.000000
vn 0.000000 0.000000 1.000000
vn 0.000000 0.000000 1.000000
vn 0.000000 0.000000 1.000000
vn 0.000000 0.000000 1.000000
vn 0.000000 1.000000 0.000000
vn 0.000000 1.000000 0.000000
vn 0.000000 1.000000 0.000000
vn 0.000000 1.000000 0.000000
vn 0.000000 0.000000 -1.000000
vn 0.000000 0.000000 -1.000000
vn 0.000000 0.000000 -1.000000
vn 0.000000 0.000000 -1.000000
vn 1.000000 0.000000 0.000000
vn 1.000000 0.000000 0.000000
vn 1.000000 0.000000 0.000000
vn 1.000000 0.000000 0.000000
vn -1.000000 0.000000 0.000000
vn -1.000000 0.000000 0.000000
vn -1.000000 0.000000 0.000000
vn -1.000000 0.000000 0.000000
vn 0.000000 0.000000 1.000000
vn 0.000000 0.000000 1.000000
vn 0.000000 0.000000 1.000000
vn 0.000000 0.000000 1.000000
vn 0.000000 1.000000 0.000000
vn 0.000000 1.000000 0.000000
vn 0.000000 1.000000 0.000000
vn 0.000000 1.000000 0.000000
vn 0.000000 0.000000 -1.000000
vn 0.000000 0.000000 -1.000000
vn 0.000000 0.000000 -1.000000
vn 0.000000 0.000000 -1.000000
vn 1.000000 0.000000 0.000000
vn 1.000000 0.000000 0.000000
vn 1.000000 0.000000 0.000000
vn 1.000000 0.000000 0.000000
vn -1.000000 0.000000 0.000000
vn -1.000000 0.000000 0.000000
vn -1.000000 0.000000 0.000000
vn -1.000000 0.000000 0.000000
s off
g pCube10
usemtl lambert2SG
f 1/1/1 2/2/2 4/4/3 3/3/4
f 3/3/5 4/4/6 6/6/7 5/5/8
f 5/5/9 6/6/10 8/8/11 7/7/12
f 2/2/13 8/9/14 6/10/15 4/4/16
f 7/11/17 1/1/18 3/3/19 5/12/20
f 9/13/21 10/14/22 12/15/23 11/16/24
f 11/16/25 12/15/26 14/17/27 13/18/28
f 13/18/29 14/17/30 16/19/31 15/20/32
f 10/14/33 16/21/34 14/22/35 12/15/36
f 15/23/37 9/13/38 11/16/39 13/24/40
f 17/25/41 18/26/42 20/27/43 19/28/44
f 19/28/45 20/27/46 22/29/47 21/30/48
f 21/30/49 22/29/50 24/31/51 23/32/52
f 18/26/53 24/33/54 22/34/55 20/27/56
f 23/35/57 17/25/58 19/28/59 21/36/60
f 25/37/61 26/38/62 28/39/63 27/40/64
f 27/40/65 28/39/66 30/41/67 29/42/68
f 29/42/69 30/41/70 32/43/71 31/44/72
f 26/38/73 32/45/74 30/46/75 28/39/76
f 31/47/77 25/37/78 27/40/79 29/48/80
f 33/49/81 34/50/82 36/51/83 35/52/84
f 35/52/85 36/51/86 38/53/87 37/54/88
f 37/54/89 38/53/90 40/55/91 39/56/92
f 34/50/93 40/57/94 38/58/95 36/51/96
f 39/59/97 33/49/98 35/52/99 37/60/100
f 41/61/101 42/62/102 44/63/103 43/64/104
f 43/64/105 44/63/106 46/65/107 45/66/108
f 45/66/109 46/65/110 48/67/111 47/68/112
f 42/62/113 48/69/114 46/70/115 44/63/116
f 47/71/117 41/61/118 43/64/119 45/72/120
