# Blender v2.80 (sub 75) OBJ File: 'cityenvironment.blend'
# www.blender.org
mtllib cityenvironment_lanes.mtl
o road_Cube
v 3.000000 1.000000 -15.000000
v 3.000000 1.000000 15.000000
v -3.000000 1.000000 -15.000000
v -3.000000 1.000000 15.000000
v 2.000000 1.000000 15.000000
v -0.000000 1.000000 15.000000
v 0.000000 1.000000 -15.000000
v 2.000000 1.000000 -15.000000
v 1.000000 1.000000 15.000000
v -1.000000 1.000000 15.000000
v -2.000000 1.000000 15.000000
v -2.000000 1.000000 -15.000000
v -1.000000 1.000000 -15.000000
v 1.000000 1.000000 -15.000000
v 2.000000 1.100000 15.000000
v 1.000000 1.100000 15.000000
v -1.000000 1.100000 15.000000
v -1.000000 1.100000 -15.000000
v 1.000000 1.100000 -15.000000
v -2.000000 1.100000 15.000000
v -2.000000 1.100000 -15.000000
v 2.000000 1.100000 -15.000000
vt 0.325114 0.569559
vt 0.325114 0.595076
vt 0.172016 0.595075
vt 0.172016 0.569559
vt 0.247885 0.658818
vt 0.224621 0.658818
vt 0.224621 0.519229
vt 0.247885 0.519229
vt 0.272586 0.512242
vt 0.296539 0.512242
vt 0.296540 0.655962
vt 0.272586 0.655962
vt 0.228016 0.511720
vt 0.252964 0.511720
vt 0.252964 0.661405
vt 0.228017 0.661405
vt 0.477302 0.428971
vt 0.344650 0.428971
vt 0.344650 0.415706
vt 0.477302 0.415706
vt 0.415345 0.344566
vt 0.415345 0.490338
vt 0.400768 0.490338
vt 0.400768 0.344566
vt 0.447811 0.345767
vt 0.447811 0.489138
vt 0.433474 0.489138
vt 0.433474 0.345767
vt 0.480850 0.416291
vt 0.345078 0.416291
vt 0.345078 0.402714
vt 0.480850 0.402714
vt 0.245805 0.485424
vt 0.223148 0.485424
vt 0.223148 0.349482
vt 0.245805 0.349482
vt 0.221745 0.351721
vt 0.243656 0.351721
vt 0.243656 0.483185
vt 0.221745 0.483185
vn 0.0000 1.0000 0.0000
vn -1.0000 0.0000 -0.0000
vn 1.0000 0.0000 0.0000
usemtl Material
s off
f 12/1/1 3/2/1 4/3/1 11/4/1
f 1/5/1 8/6/1 5/7/1 2/8/1
f 14/9/1 7/10/1 6/11/1 9/12/1
f 7/13/1 13/14/1 10/15/1 6/16/1
f 14/17/2 9/18/2 16/19/2 19/20/2
f 10/21/3 13/22/3 18/23/3 17/24/3
f 5/25/3 8/26/3 22/27/3 15/28/3
f 12/29/2 11/30/2 20/31/2 21/32/2
f 22/33/1 19/34/1 16/35/1 15/36/1
f 18/37/1 21/38/1 20/39/1 17/40/1
o road_lines_Cube.001
v -0.100000 0.952094 -14.739326
v -0.100000 1.022094 -14.739326
v -0.100000 0.952094 -15.260674
v -0.100000 1.022094 -15.260674
v 0.100000 0.952094 -14.739326
v 0.100000 1.022094 -14.739326
v 0.100000 0.952094 -15.260674
v 0.100000 1.022094 -15.260674
v -0.100000 0.952094 -13.740749
v -0.100000 1.022094 -13.740749
v -0.100000 0.952094 -14.262097
v -0.100000 1.022094 -14.262097
v 0.100000 0.952094 -13.740749
v 0.100000 1.022094 -13.740749
v 0.100000 0.952094 -14.262097
v 0.100000 1.022094 -14.262097
v -0.100000 0.952094 -12.742172
v -0.100000 1.022094 -12.742172
v -0.100000 0.952094 -13.263520
v -0.100000 1.022094 -13.263520
v 0.100000 0.952094 -12.742172
v 0.100000 1.022094 -12.742172
v 0.100000 0.952094 -13.263520
v 0.100000 1.022094 -13.263520
v -0.100000 0.952094 -11.743595
v -0.100000 1.022094 -11.743595
v -0.100000 0.952094 -12.264944
v -0.100000 1.022094 -12.264944
v 0.100000 0.952094 -11.743595
v 0.100000 1.022094 -11.743595
v 0.100000 0.952094 -12.264944
v 0.100000 1.022094 -12.264944
v -0.100000 0.952094 -10.745018
v -0.100000 1.022094 -10.745018
v -0.100000 0.952094 -11.266367
v -0.100000 1.022094 -11.266367
v 0.100000 0.952094 -10.745018
v 0.100000 1.022094 -10.745018
v 0.100000 0.952094 -11.266367
v 0.100000 1.022094 -11.266367
v -0.100000 0.952094 -9.746442
v -0.100000 1.022094 -9.746442
v -0.100000 0.952094 -10.267790
v -0.100000 1.022094 -10.267790
v 0.100000 0.952094 -9.746442
v 0.100000 1.022094 -9.746442
v 0.100000 0.952094 -10.267790
v 0.100000 1.022094 -10.267790
v -0.100000 0.952094 -8.747866
v -0.100000 1.022094 -8.747866
v -0.100000 0.952094 -9.269214
v -0.100000 1.022094 -9.269214
v 0.100000 0.952094 -8.747866
v 0.100000 1.022094 -8.747866
v 0.100000 0.952094 -9.269214
v 0.100000 1.022094 -9.269214
v -0.100000 0.952094 -7.749289
v -0.100000 1.022094 -7.749289
v -0.100000 0.952094 -8.270637
v -0.100000 1.022094 -8.270637
v 0.100000 0.952094 -7.749289
v 0.100000 1.022094 -7.749289
v 0.100000 0.952094 -8.270637
v 0.100000 1.022094 -8.270637
v -0.100000 0.952094 -6.750712
v -0.100000 1.022094 -6.750712
v -0.100000 0.952094 -7.272060
v -0.100000 1.022094 -7.272060
v 0.100000 0.952094 -6.750712
v 0.100000 1.022094 -6.750712
v 0.100000 0.952094 -7.272060
v 0.100000 1.022094 -7.272060
v -0.100000 0.952094 -5.752136
v -0.100000 1.022094 -5.752136
v -0.100000 0.952094 -6.273483
v -0.100000 1.022094 -6.273483
v 0.100000 0.952094 -5.752136
v 0.100000 1.022094 -5.752136
v 0.100000 0.952094 -6.273483
v 0.100000 1.022094 -6.273483
v -0.100000 0.952094 -4.753559
v -0.100000 1.022094 -4.753559
v -0.100000 0.952094 -5.274907
v -0.100000 1.022094 -5.274907
v 0.100000 0.952094 -4.753559
v 0.100000 1.022094 -4.753559
v 0.100000 0.952094 -5.274907
v 0.100000 1.022094 -5.274907
v -0.100000 0.952094 -3.754983
v -0.100000 1.022094 -3.754983
v -0.100000 0.952094 -4.276330
v -0.100000 1.022094 -4.276330
v 0.100000 0.952094 -3.754983
v 0.100000 1.022094 -3.754983
v 0.100000 0.952094 -4.276330
v 0.100000 1.022094 -4.276330
v -0.100000 0.952094 -2.756406
v -0.100000 1.022094 -2.756406
v -0.100000 0.952094 -3.277754
v -0.100000 1.022094 -3.277754
v 0.100000 0.952094 -2.756406
v 0.100000 1.022094 -2.756406
v 0.100000 0.952094 -3.277754
v 0.100000 1.022094 -3.277754
v -0.100000 0.952094 -1.757830
v -0.100000 1.022094 -1.757830
v -0.100000 0.952094 -2.279177
v -0.100000 1.022094 -2.279177
v 0.100000 0.952094 -1.757830
v 0.100000 1.022094 -1.757830
v 0.100000 0.952094 -2.279177
v 0.100000 1.022094 -2.279177
v -0.100000 0.952094 -0.759252
v -0.100000 1.022094 -0.759252
v -0.100000 0.952094 -1.280601
v -0.100000 1.022094 -1.280601
v 0.100000 0.952094 -0.759252
v 0.100000 1.022094 -0.759252
v 0.100000 0.952094 -1.280601
v 0.100000 1.022094 -1.280601
v -0.100000 0.952094 0.239326
v -0.100000 1.022094 0.239326
v -0.100000 0.952094 -0.282023
v -0.100000 1.022094 -0.282023
v 0.100000 0.952094 0.239326
v 0.100000 1.022094 0.239326
v 0.100000 0.952094 -0.282023
v 0.100000 1.022094 -0.282023
v -0.100000 0.952094 1.237904
v -0.100000 1.022094 1.237904
v -0.100000 0.952094 0.716555
v -0.100000 1.022094 0.716555
v 0.100000 0.952094 1.237904
v 0.100000 1.022094 1.237904
v 0.100000 0.952094 0.716555
v 0.100000 1.022094 0.716555
v -0.100000 0.952094 2.236481
v -0.100000 1.022094 2.236481
v -0.100000 0.952094 1.715132
v -0.100000 1.022094 1.715132
v 0.100000 0.952094 2.236481
v 0.100000 1.022094 2.236481
v 0.100000 0.952094 1.715132
v 0.100000 1.022094 1.715132
v -0.100000 0.952094 3.235058
v -0.100000 1.022094 3.235058
v -0.100000 0.952094 2.713709
v -0.100000 1.022094 2.713709
v 0.100000 0.952094 3.235058
v 0.100000 1.022094 3.235058
v 0.100000 0.952094 2.713709
v 0.100000 1.022094 2.713709
v -0.100000 0.952094 4.233635
v -0.100000 1.022094 4.233635
v -0.100000 0.952094 3.712286
v -0.100000 1.022094 3.712286
v 0.100000 0.952094 4.233635
v 0.100000 1.022094 4.233635
v 0.100000 0.952094 3.712286
v 0.100000 1.022094 3.712286
v -0.100000 0.952094 5.232212
v -0.100000 1.022094 5.232212
v -0.100000 0.952094 4.710863
v -0.100000 1.022094 4.710863
v 0.100000 0.952094 5.232212
v 0.100000 1.022094 5.232212
v 0.100000 0.952094 4.710863
v 0.100000 1.022094 4.710863
v -0.100000 0.952094 6.230791
v -0.100000 1.022094 6.230791
v -0.100000 0.952094 5.709442
v -0.100000 1.022094 5.709442
v 0.100000 0.952094 6.230791
v 0.100000 1.022094 6.230791
v 0.100000 0.952094 5.709442
v 0.100000 1.022094 5.709442
v -0.100000 0.952094 7.229368
v -0.100000 1.022094 7.229368
v -0.100000 0.952094 6.708019
v -0.100000 1.022094 6.708019
v 0.100000 0.952094 7.229368
v 0.100000 1.022094 7.229368
v 0.100000 0.952094 6.708019
v 0.100000 1.022094 6.708019
v -0.100000 0.952094 8.227945
v -0.100000 1.022094 8.227945
v -0.100000 0.952094 7.706596
v -0.100000 1.022094 7.706596
v 0.100000 0.952094 8.227945
v 0.100000 1.022094 8.227945
v 0.100000 0.952094 7.706596
v 0.100000 1.022094 7.706596
v -0.100000 0.952094 9.226522
v -0.100000 1.022094 9.226522
v -0.100000 0.952094 8.705173
v -0.100000 1.022094 8.705173
v 0.100000 0.952094 9.226522
v 0.100000 1.022094 9.226522
v 0.100000 0.952094 8.705173
v 0.100000 1.022094 8.705173
v -0.100000 0.952094 10.225100
v -0.100000 1.022094 10.225100
v -0.100000 0.952094 9.703751
v -0.100000 1.022094 9.703751
v 0.100000 0.952094 10.225100
v 0.100000 1.022094 10.225100
v 0.100000 0.952094 9.703751
v 0.100000 1.022094 9.703751
v -0.100000 0.952094 11.223677
v -0.100000 1.022094 11.223677
v -0.100000 0.952094 10.702328
v -0.100000 1.022094 10.702328
v 0.100000 0.952094 11.223677
v 0.100000 1.022094 11.223677
v 0.100000 0.952094 10.702328
v 0.100000 1.022094 10.702328
v -0.100000 0.952094 12.222254
v -0.100000 1.022094 12.222254
v -0.100000 0.952094 11.700905
v -0.100000 1.022094 11.700905
v 0.100000 0.952094 12.222254
v 0.100000 1.022094 12.222254
v 0.100000 0.952094 11.700905
v 0.100000 1.022094 11.700905
v -0.100000 0.952094 13.220833
v -0.100000 1.022094 13.220833
v -0.100000 0.952094 12.699484
v -0.100000 1.022094 12.699484
v 0.100000 0.952094 13.220833
v 0.100000 1.022094 13.220833
v 0.100000 0.952094 12.699484
v 0.100000 1.022094 12.699484
v -0.100000 0.952094 14.219410
v -0.100000 1.022094 14.219410
v -0.100000 0.952094 13.698061
v -0.100000 1.022094 13.698061
v 0.100000 0.952094 14.219410
v 0.100000 1.022094 14.219410
v 0.100000 0.952094 13.698061
v 0.100000 1.022094 13.698061
v -0.100000 0.952094 15.217987
v -0.100000 1.022094 15.217987
v -0.100000 0.952094 14.696638
v -0.100000 1.022094 14.696638
v 0.100000 0.952094 15.217987
v 0.100000 1.022094 15.217987
v 0.100000 0.952094 14.696638
v 0.100000 1.022094 14.696638
vt 0.887169 0.839779
vt 0.925215 0.839779
vt 0.925215 0.877826
vt 0.887169 0.877826
vt 0.925215 0.915872
vt 0.887169 0.915872
vt 0.925215 0.953919
vt 0.887169 0.953919
vt 0.925215 0.991965
vt 0.887169 0.991965
vt 0.963262 0.915872
vt 0.963262 0.953919
vt 0.887169 0.839779
vt 0.925215 0.839779
vt 0.925215 0.877826
vt 0.887169 0.877826
vt 0.925215 0.915872
vt 0.887169 0.915872
vt 0.925215 0.953919
vt 0.887169 0.953919
vt 0.925215 0.991965
vt 0.887169 0.991965
vt 0.963262 0.915872
vt 0.963262 0.953919
vt 0.887169 0.839779
vt 0.925215 0.839779
vt 0.925215 0.877826
vt 0.887169 0.877826
vt 0.925215 0.915872
vt 0.887169 0.915872
vt 0.925215 0.953919
vt 0.887169 0.953919
vt 0.925215 0.991965
vt 0.887169 0.991965
vt 0.963262 0.915872
vt 0.963262 0.953919
vt 0.887169 0.839779
vt 0.925215 0.839779
vt 0.925215 0.877826
vt 0.887169 0.877826
vt 0.925215 0.915872
vt 0.887169 0.915872
vt 0.925215 0.953919
vt 0.887169 0.953919
vt 0.925215 0.991965
vt 0.887169 0.991965
vt 0.963262 0.915872
vt 0.963262 0.953919
vt 0.887169 0.839779
vt 0.925215 0.839779
vt 0.925215 0.877826
vt 0.887169 0.877826
vt 0.925215 0.915872
vt 0.887169 0.915872
vt 0.925215 0.953919
vt 0.887169 0.953919
vt 0.925215 0.991965
vt 0.887169 0.991965
vt 0.963262 0.915872
vt 0.963262 0.953919
vt 0.887169 0.839779
vt 0.925215 0.839779
vt 0.925215 0.877826
vt 0.887169 0.877826
vt 0.925215 0.915872
vt 0.887169 0.915872
vt 0.925215 0.953919
vt 0.887169 0.953919
vt 0.925215 0.991965
vt 0.887169 0.991965
vt 0.963262 0.915872
vt 0.963262 0.953919
vt 0.887169 0.839779
vt 0.925215 0.839779
vt 0.925215 0.877826
vt 0.887169 0.877826
vt 0.925215 0.915872
vt 0.887169 0.915872
vt 0.925215 0.953919
vt 0.887169 0.953919
vt 0.925215 0.991965
vt 0.887169 0.991965
vt 0.963262 0.915872
vt 0.963262 0.953919
vt 0.887169 0.839779
vt 0.925215 0.839779
vt 0.925215 0.877826
vt 0.887169 0.877826
vt 0.925215 0.915872
vt 0.887169 0.915872
vt 0.925215 0.953919
vt 0.887169 0.953919
vt 0.925215 0.991965
vt 0.887169 0.991965
vt 0.963262 0.915872
vt 0.963262 0.953919
vt 0.887169 0.839779
vt 0.925215 0.839779
vt 0.925215 0.877826
vt 0.887169 0.877826
vt 0.925215 0.915872
vt 0.887169 0.915872
vt 0.925215 0.953919
vt 0.887169 0.953919
vt 0.925215 0.991965
vt 0.887169 0.991965
vt 0.963262 0.915872
vt 0.963262 0.953919
vt 0.887169 0.839779
vt 0.925215 0.839779
vt 0.925215 0.877826
vt 0.887169 0.877826
vt 0.925215 0.915872
vt 0.887169 0.915872
vt 0.925215 0.953919
vt 0.887169 0.953919
vt 0.925215 0.991965
vt 0.887169 0.991965
vt 0.963262 0.915872
vt 0.963262 0.953919
vt 0.887169 0.839779
vt 0.925215 0.839779
vt 0.925215 0.877826
vt 0.887169 0.877826
vt 0.925215 0.915872
vt 0.887169 0.915872
vt 0.925215 0.953919
vt 0.887169 0.953919
vt 0.925215 0.991965
vt 0.887169 0.991965
vt 0.963262 0.915872
vt 0.963262 0.953919
vt 0.887169 0.839779
vt 0.925215 0.839779
vt 0.925215 0.877826
vt 0.887169 0.877826
vt 0.925215 0.915872
vt 0.887169 0.915872
vt 0.925215 0.953919
vt 0.887169 0.953919
vt 0.925215 0.991965
vt 0.887169 0.991965
vt 0.963262 0.915872
vt 0.963262 0.953919
vt 0.887169 0.839779
vt 0.925215 0.839779
vt 0.925215 0.877826
vt 0.887169 0.877826
vt 0.925215 0.915872
vt 0.887169 0.915872
vt 0.925215 0.953919
vt 0.887169 0.953919
vt 0.925215 0.991965
vt 0.887169 0.991965
vt 0.963262 0.915872
vt 0.963262 0.953919
vt 0.887169 0.839779
vt 0.925215 0.839779
vt 0.925215 0.877826
vt 0.887169 0.877826
vt 0.925215 0.915872
vt 0.887169 0.915872
vt 0.925215 0.953919
vt 0.887169 0.953919
vt 0.925215 0.991965
vt 0.887169 0.991965
vt 0.963262 0.915872
vt 0.963262 0.953919
vt 0.887169 0.839779
vt 0.925215 0.839779
vt 0.925215 0.877826
vt 0.887169 0.877826
vt 0.925215 0.915872
vt 0.887169 0.915872
vt 0.925215 0.953919
vt 0.887169 0.953919
vt 0.925215 0.991965
vt 0.887169 0.991965
vt 0.963262 0.915872
vt 0.963262 0.953919
vt 0.887169 0.839779
vt 0.925215 0.839779
vt 0.925215 0.877826
vt 0.887169 0.877826
vt 0.925215 0.915872
vt 0.887169 0.915872
vt 0.925215 0.953919
vt 0.887169 0.953919
vt 0.925215 0.991965
vt 0.887169 0.991965
vt 0.963262 0.915872
vt 0.963262 0.953919
vt 0.887169 0.839779
vt 0.925215 0.839779
vt 0.925215 0.877826
vt 0.887169 0.877826
vt 0.925215 0.915872
vt 0.887169 0.915872
vt 0.925215 0.953919
vt 0.887169 0.953919
vt 0.925215 0.991965
vt 0.887169 0.991965
vt 0.963262 0.915872
vt 0.963262 0.953919
vt 0.887169 0.839779
vt 0.925215 0.839779
vt 0.925215 0.877826
vt 0.887169 0.877826
vt 0.925215 0.915872
vt 0.887169 0.915872
vt 0.925215 0.953919
vt 0.887169 0.953919
vt 0.925215 0.991965
vt 0.887169 0.991965
vt 0.963262 0.915872
vt 0.963262 0.953919
vt 0.887169 0.839779
vt 0.925215 0.839779
vt 0.925215 0.877826
vt 0.887169 0.877826
vt 0.925215 0.915872
vt 0.887169 0.915872
vt 0.925215 0.953919
vt 0.887169 0.953919
vt 0.925215 0.991965
vt 0.887169 0.991965
vt 0.963262 0.915872
vt 0.963262 0.953919
vt 0.887169 0.839779
vt 0.925215 0.839779
vt 0.925215 0.877826
vt 0.887169 0.877826
vt 0.925215 0.915872
vt 0.887169 0.915872
vt 0.925215 0.953919
vt 0.887169 0.953919
vt 0.925215 0.991965
vt 0.887169 0.991965
vt 0.963262 0.915872
vt 0.963262 0.953919
vt 0.887169 0.839779
vt 0.925215 0.839779
vt 0.925215 0.877826
vt 0.887169 0.877826
vt 0.925215 0.915872
vt 0.887169 0.915872
vt 0.925215 0.953919
vt 0.887169 0.953919
vt 0.925215 0.991965
vt 0.887169 0.991965
vt 0.963262 0.915872
vt 0.963262 0.953919
vt 0.887169 0.839779
vt 0.925215 0.839779
vt 0.925215 0.877826
vt 0.887169 0.877826
vt 0.925215 0.915872
vt 0.887169 0.915872
vt 0.925215 0.953919
vt 0.887169 0.953919
vt 0.925215 0.991965
vt 0.887169 0.991965
vt 0.963262 0.915872
vt 0.963262 0.953919
vt 0.887169 0.839779
vt 0.925215 0.839779
vt 0.925215 0.877826
vt 0.887169 0.877826
vt 0.925215 0.915872
vt 0.887169 0.915872
vt 0.925215 0.953919
vt 0.887169 0.953919
vt 0.925215 0.991965
vt 0.887169 0.991965
vt 0.963262 0.915872
vt 0.963262 0.953919
vt 0.887169 0.839779
vt 0.925215 0.839779
vt 0.925215 0.877826
vt 0.887169 0.877826
vt 0.925215 0.915872
vt 0.887169 0.915872
vt 0.925215 0.953919
vt 0.887169 0.953919
vt 0.925215 0.991965
vt 0.887169 0.991965
vt 0.963262 0.915872
vt 0.963262 0.953919
vt 0.887169 0.839779
vt 0.925215 0.839779
vt 0.925215 0.877826
vt 0.887169 0.877826
vt 0.925215 0.915872
vt 0.887169 0.915872
vt 0.925215 0.953919
vt 0.887169 0.953919
vt 0.925215 0.991965
vt 0.887169 0.991965
vt 0.963262 0.915872
vt 0.963262 0.953919
vt 0.887169 0.839779
vt 0.925215 0.839779
vt 0.925215 0.877826
vt 0.887169 0.877826
vt 0.925215 0.915872
vt 0.887169 0.915872
vt 0.925215 0.953919
vt 0.887169 0.953919
vt 0.925215 0.991965
vt 0.887169 0.991965
vt 0.963262 0.915872
vt 0.963262 0.953919
vt 0.887169 0.839779
vt 0.925215 0.839779
vt 0.925215 0.877826
vt 0.887169 0.877826
vt 0.925215 0.915872
vt 0.887169 0.915872
vt 0.925215 0.953919
vt 0.887169 0.953919
vt 0.925215 0.991965
vt 0.887169 0.991965
vt 0.963262 0.915872
vt 0.963262 0.953919
vt 0.887169 0.839779
vt 0.925215 0.839779
vt 0.925215 0.877826
vt 0.887169 0.877826
vt 0.925215 0.915872
vt 0.887169 0.915872
vt 0.925215 0.953919
vt 0.887169 0.953919
vt 0.925215 0.991965
vt 0.887169 0.991965
vt 0.963262 0.915872
vt 0.963262 0.953919
vt 0.887169 0.839779
vt 0.925215 0.839779
vt 0.925215 0.877826
vt 0.887169 0.877826
vt 0.925215 0.915872
vt 0.887169 0.915872
vt 0.925215 0.953919
vt 0.887169 0.953919
vt 0.925215 0.991965
vt 0.887169 0.991965
vt 0.963262 0.915872
vt 0.963262 0.953919
vt 0.887169 0.839779
vt 0.925215 0.839779
vt 0.925215 0.877826
vt 0.887169 0.877826
vt 0.925215 0.915872
vt 0.887169 0.915872
vt 0.925215 0.953919
vt 0.887169 0.953919
vt 0.925215 0.991965
vt 0.887169 0.991965
vt 0.963262 0.915872
vt 0.963262 0.953919
vt 0.887169 0.839779
vt 0.925215 0.839779
vt 0.925215 0.877826
vt 0.887169 0.877826
vt 0.925215 0.915872
vt 0.887169 0.915872
vt 0.925215 0.953919
vt 0.887169 0.953919
vt 0.925215 0.991965
vt 0.887169 0.991965
vt 0.963262 0.915872
vt 0.963262 0.953919
vn -1.0000 0.0000 0.0000
vn 0.0000 0.0000 -1.0000
vn 1.0000 0.0000 0.0000
vn 0.0000 0.0000 1.0000
vn 0.0000 1.0000 0.0000
usemtl Material
s off
f 23/41/4 24/42/4 26/43/4 25/44/4
f 25/44/5 26/43/5 30/45/5 29/46/5
f 29/46/6 30/45/6 28/47/6 27/48/6
f 27/48/7 28/47/7 24/49/7 23/50/7
f 30/45/8 26/51/8 24/52/8 28/47/8
f 31/53/4 32/54/4 34/55/4 33/56/4
f 33/56/5 34/55/5 38/57/5 37/58/5
f 37/58/6 38/57/6 36/59/6 35/60/6
f 35/60/7 36/59/7 32/61/7 31/62/7
f 38/57/8 34/63/8 32/64/8 36/59/8
f 39/65/4 40/66/4 42/67/4 41/68/4
f 41/68/5 42/67/5 46/69/5 45/70/5
f 45/70/6 46/69/6 44/71/6 43/72/6
f 43/72/7 44/71/7 40/73/7 39/74/7
f 46/69/8 42/75/8 40/76/8 44/71/8
f 47/77/4 48/78/4 50/79/4 49/80/4
f 49/80/5 50/79/5 54/81/5 53/82/5
f 53/82/6 54/81/6 52/83/6 51/84/6
f 51/84/7 52/83/7 48/85/7 47/86/7
f 54/81/8 50/87/8 48/88/8 52/83/8
f 55/89/4 56/90/4 58/91/4 57/92/4
f 57/92/5 58/91/5 62/93/5 61/94/5
f 61/94/6 62/93/6 60/95/6 59/96/6
f 59/96/7 60/95/7 56/97/7 55/98/7
f 62/93/8 58/99/8 56/100/8 60/95/8
f 63/101/4 64/102/4 66/103/4 65/104/4
f 65/104/5 66/103/5 70/105/5 69/106/5
f 69/106/6 70/105/6 68/107/6 67/108/6
f 67/108/7 68/107/7 64/109/7 63/110/7
f 70/105/8 66/111/8 64/112/8 68/107/8
f 71/113/4 72/114/4 74/115/4 73/116/4
f 73/116/5 74/115/5 78/117/5 77/118/5
f 77/118/6 78/117/6 76/119/6 75/120/6
f 75/120/7 76/119/7 72/121/7 71/122/7
f 78/117/8 74/123/8 72/124/8 76/119/8
f 79/125/4 80/126/4 82/127/4 81/128/4
f 81/128/5 82/127/5 86/129/5 85/130/5
f 85/130/6 86/129/6 84/131/6 83/132/6
f 83/132/7 84/131/7 80/133/7 79/134/7
f 86/129/8 82/135/8 80/136/8 84/131/8
f 87/137/4 88/138/4 90/139/4 89/140/4
f 89/140/5 90/139/5 94/141/5 93/142/5
f 93/142/6 94/141/6 92/143/6 91/144/6
f 91/144/7 92/143/7 88/145/7 87/146/7
f 94/141/8 90/147/8 88/148/8 92/143/8
f 95/149/4 96/150/4 98/151/4 97/152/4
f 97/152/5 98/151/5 102/153/5 101/154/5
f 101/154/6 102/153/6 100/155/6 99/156/6
f 99/156/7 100/155/7 96/157/7 95/158/7
f 102/153/8 98/159/8 96/160/8 100/155/8
f 103/161/4 104/162/4 106/163/4 105/164/4
f 105/164/5 106/163/5 110/165/5 109/166/5
f 109/166/6 110/165/6 108/167/6 107/168/6
f 107/168/7 108/167/7 104/169/7 103/170/7
f 110/165/8 106/171/8 104/172/8 108/167/8
f 111/173/4 112/174/4 114/175/4 113/176/4
f 113/176/5 114/175/5 118/177/5 117/178/5
f 117/178/6 118/177/6 116/179/6 115/180/6
f 115/180/7 116/179/7 112/181/7 111/182/7
f 118/177/8 114/183/8 112/184/8 116/179/8
f 119/185/4 120/186/4 122/187/4 121/188/4
f 121/188/5 122/187/5 126/189/5 125/190/5
f 125/190/6 126/189/6 124/191/6 123/192/6
f 123/192/7 124/191/7 120/193/7 119/194/7
f 126/189/8 122/195/8 120/196/8 124/191/8
f 127/197/4 128/198/4 130/199/4 129/200/4
f 129/200/5 130/199/5 134/201/5 133/202/5
f 133/202/6 134/201/6 132/203/6 131/204/6
f 131/204/7 132/203/7 128/205/7 127/206/7
f 134/201/8 130/207/8 128/208/8 132/203/8
f 135/209/4 136/210/4 138/211/4 137/212/4
f 137/212/5 138/211/5 142/213/5 141/214/5
f 141/214/6 142/213/6 140/215/6 139/216/6
f 139/216/7 140/215/7 136/217/7 135/218/7
f 142/213/8 138/219/8 136/220/8 140/215/8
f 143/221/4 144/222/4 146/223/4 145/224/4
f 145/224/5 146/223/5 150/225/5 149/226/5
f 149/226/6 150/225/6 148/227/6 147/228/6
f 147/228/7 148/227/7 144/229/7 143/230/7
f 150/225/8 146/231/8 144/232/8 148/227/8
f 151/233/4 152/234/4 154/235/4 153/236/4
f 153/236/5 154/235/5 158/237/5 157/238/5
f 157/238/6 158/237/6 156/239/6 155/240/6
f 155/240/7 156/239/7 152/241/7 151/242/7
f 158/237/8 154/243/8 152/244/8 156/239/8
f 159/245/4 160/246/4 162/247/4 161/248/4
f 161/248/5 162/247/5 166/249/5 165/250/5
f 165/250/6 166/249/6 164/251/6 163/252/6
f 163/252/7 164/251/7 160/253/7 159/254/7
f 166/249/8 162/255/8 160/256/8 164/251/8
f 167/257/4 168/258/4 170/259/4 169/260/4
f 169/260/5 170/259/5 174/261/5 173/262/5
f 173/262/6 174/261/6 172/263/6 171/264/6
f 171/264/7 172/263/7 168/265/7 167/266/7
f 174/261/8 170/267/8 168/268/8 172/263/8
f 175/269/4 176/270/4 178/271/4 177/272/4
f 177/272/5 178/271/5 182/273/5 181/274/5
f 181/274/6 182/273/6 180/275/6 179/276/6
f 179/276/7 180/275/7 176/277/7 175/278/7
f 182/273/8 178/279/8 176/280/8 180/275/8
f 183/281/4 184/282/4 186/283/4 185/284/4
f 185/284/5 186/283/5 190/285/5 189/286/5
f 189/286/6 190/285/6 188/287/6 187/288/6
f 187/288/7 188/287/7 184/289/7 183/290/7
f 190/285/8 186/291/8 184/292/8 188/287/8
f 191/293/4 192/294/4 194/295/4 193/296/4
f 193/296/5 194/295/5 198/297/5 197/298/5
f 197/298/6 198/297/6 196/299/6 195/300/6
f 195/300/7 196/299/7 192/301/7 191/302/7
f 198/297/8 194/303/8 192/304/8 196/299/8
f 199/305/4 200/306/4 202/307/4 201/308/4
f 201/308/5 202/307/5 206/309/5 205/310/5
f 205/310/6 206/309/6 204/311/6 203/312/6
f 203/312/7 204/311/7 200/313/7 199/314/7
f 206/309/8 202/315/8 200/316/8 204/311/8
f 207/317/4 208/318/4 210/319/4 209/320/4
f 209/320/5 210/319/5 214/321/5 213/322/5
f 213/322/6 214/321/6 212/323/6 211/324/6
f 211/324/7 212/323/7 208/325/7 207/326/7
f 214/321/8 210/327/8 208/328/8 212/323/8
f 215/329/4 216/330/4 218/331/4 217/332/4
f 217/332/5 218/331/5 222/333/5 221/334/5
f 221/334/6 222/333/6 220/335/6 219/336/6
f 219/336/7 220/335/7 216/337/7 215/338/7
f 222/333/8 218/339/8 216/340/8 220/335/8
f 223/341/4 224/342/4 226/343/4 225/344/4
f 225/344/5 226/343/5 230/345/5 229/346/5
f 229/346/6 230/345/6 228/347/6 227/348/6
f 227/348/7 228/347/7 224/349/7 223/350/7
f 230/345/8 226/351/8 224/352/8 228/347/8
f 231/353/4 232/354/4 234/355/4 233/356/4
f 233/356/5 234/355/5 238/357/5 237/358/5
f 237/358/6 238/357/6 236/359/6 235/360/6
f 235/360/7 236/359/7 232/361/7 231/362/7
f 238/357/8 234/363/8 232/364/8 236/359/8
f 239/365/4 240/366/4 242/367/4 241/368/4
f 241/368/5 242/367/5 246/369/5 245/370/5
f 245/370/6 246/369/6 244/371/6 243/372/6
f 243/372/7 244/371/7 240/373/7 239/374/7
f 246/369/8 242/375/8 240/376/8 244/371/8
f 247/377/4 248/378/4 250/379/4 249/380/4
f 249/380/5 250/379/5 254/381/5 253/382/5
f 253/382/6 254/381/6 252/383/6 251/384/6
f 251/384/7 252/383/7 248/385/7 247/386/7
f 254/381/8 250/387/8 248/388/8 252/383/8
f 255/389/4 256/390/4 258/391/4 257/392/4
f 257/392/5 258/391/5 262/393/5 261/394/5
f 261/394/6 262/393/6 260/395/6 259/396/6
f 259/396/7 260/395/7 256/397/7 255/398/7
f 262/393/8 258/399/8 256/400/8 260/395/8
f 263/401/4 264/402/4 266/403/4 265/404/4
f 265/404/5 266/403/5 270/405/5 269/406/5
f 269/406/6 270/405/6 268/407/6 267/408/6
f 267/408/7 268/407/7 264/409/7 263/410/7
f 270/405/8 266/411/8 264/412/8 268/407/8
