# Blender v2.80 (sub 75) OBJ File: 'cityenvironment.blend'
# www.blender.org
mtllib cityenvironment_parkinglot.mtl
o house5_Cube.008
v -18.000000 0.000000 1.000000
v -18.000000 6.000000 1.000000
v -18.000000 0.000000 -6.000000
v -18.000000 6.000000 -6.000000
v -10.000000 6.000000 1.000000
v -10.000000 0.000000 -6.000000
v -10.000000 6.000000 -6.000000
v -11.000000 0.000000 -6.000000
v -12.000000 0.000000 -6.000000
v -13.000000 0.000000 -6.000000
v -14.000000 0.000000 -6.000000
v -14.000000 6.000000 -6.000000
v -13.000000 6.000000 -6.000000
v -12.000000 6.000000 -6.000000
v -11.000000 6.000000 -6.000000
v -11.000000 6.000000 1.000000
v -12.000000 6.000000 1.000000
v -13.000000 6.000000 1.000000
v -14.000000 6.000000 1.000000
v -18.000000 2.000000 1.000000
v -18.000000 5.000000 1.000000
v -18.000000 5.000000 -6.000000
v -18.000000 2.000000 -6.000000
v -10.000000 5.000000 -6.000000
v -10.000000 2.000000 -6.000000
v -14.000000 5.000000 -6.000000
v -14.000000 2.000000 -6.000000
v -13.000000 5.000000 -6.000000
v -13.000000 2.000000 -6.000000
v -12.000000 5.000000 -6.000000
v -12.000000 2.000000 -6.000000
v -11.000000 5.000000 -6.000000
v -11.000000 2.000000 -6.000000
v -18.000000 5.500000 1.000000
v -18.000000 5.500000 -6.000000
v -10.000000 5.500000 -6.000000
v -14.000000 5.500000 -6.000000
v -13.000000 5.500000 -6.000000
v -12.000000 5.500000 -6.000000
v -11.000000 5.500000 -6.000000
v -18.259903 5.478392 1.002137
v -18.259903 6.021607 1.002137
v -18.259903 6.021607 -6.302511
v -10.740705 6.021607 -6.302511
v -9.757509 6.021607 -6.302511
v -9.757510 6.021607 1.007260
v -14.000000 6.021607 -6.302511
v -12.913568 6.021607 -6.302511
v -11.827136 6.021607 -6.302511
v -18.259903 5.478392 -6.302511
v -9.757509 5.478392 -6.302511
v -14.000000 5.478392 -6.302511
v -12.913568 5.478392 -6.302511
v -11.827136 5.478392 -6.302511
v -10.740705 5.478392 -6.302511
v -14.000000 5.000000 -5.058228
v -14.000000 2.000000 -5.058228
v -13.000000 5.000000 -5.058228
v -13.000000 2.000000 -5.058228
v -12.000000 5.000000 -5.058228
v -12.000000 2.000000 -5.058228
v -11.000000 5.000000 -5.058228
v -11.000000 2.000000 -5.058228
vt 0.148437 0.856073
vt 0.084087 0.856029
vt 0.084090 0.850458
vt 0.152627 0.850507
vt 0.148435 0.984773
vt 0.152627 0.984812
vt 0.457128 0.919325
vt 0.450449 0.919325
vt 0.450449 0.852526
vt 0.457128 0.852526
vt 0.019721 0.856029
vt 0.035811 0.856022
vt 0.035787 0.984753
vt 0.019695 0.984750
vt 0.051904 0.856021
vt 0.051879 0.984757
vt 0.067996 0.856024
vt 0.067971 0.984760
vt 0.084064 0.984763
vt 0.421134 0.984008
vt 0.421134 0.847163
vt 0.439191 0.847121
vt 0.439191 0.989921
vt 0.457160 0.985544
vt 0.457160 0.967721
vt 0.481156 0.972342
vt 0.481156 0.989866
vt 0.457160 0.932075
vt 0.457160 0.914252
vt 0.481156 0.914252
vt 0.481156 0.933616
vt 0.457160 0.949898
vt 0.481156 0.952979
vt 0.031636 0.850451
vt 0.049122 0.850450
vt 0.383650 0.936024
vt 0.410369 0.936024
vt 0.410369 0.952724
vt 0.383650 0.952724
vt 0.353651 0.957083
vt 0.353651 0.895635
vt 0.419788 0.895635
vt 0.419788 0.957083
vt 0.084302 0.947762
vt 0.084302 0.890264
vt 0.146188 0.890264
vt 0.146188 0.947762
vt 0.450449 0.969424
vt 0.450449 0.986123
vt 0.410369 0.986123
vt 0.410369 0.969424
vt 0.383650 0.919325
vt 0.410369 0.919325
vt 0.228696 0.984001
vt 0.228696 0.851661
vt 0.288045 0.851661
vt 0.288045 0.984001
vt 0.358571 0.988204
vt 0.358571 0.917992
vt 0.365734 0.917992
vt 0.365734 0.988204
vt 0.383650 0.852526
vt 0.410369 0.852526
vt 0.383650 0.969424
vt 0.383650 0.986123
vt 0.184623 0.936126
vt 0.184623 0.863575
vt 0.319682 0.863575
vt 0.319682 0.936126
vt 0.184623 0.984493
vt 0.319682 0.984493
vt 0.218947 0.985107
vt 0.218947 0.852311
vt 0.278501 0.852311
vt 0.278501 0.985107
vt 0.417371 0.844338
vt 0.479785 0.844338
vt 0.479785 0.983511
vt 0.417371 0.983511
vt 0.450449 0.952724
vt 0.457128 0.952724
vt 0.457128 0.969424
vt 0.450449 0.936024
vt 0.457128 0.936024
vt 0.457128 0.986123
vt 0.184623 0.851484
vt 0.319682 0.851484
vt 0.301538 0.856782
vt 0.308169 0.856782
vt 0.308169 0.984161
vt 0.301538 0.984161
vt 0.365734 0.864271
vt 0.358571 0.864271
vt 0.358571 0.848066
vt 0.365734 0.848066
vt 0.457160 0.842960
vt 0.481156 0.838328
vt 0.358571 0.900085
vt 0.365734 0.900085
vt 0.358571 0.882178
vt 0.365734 0.882178
vt 0.015811 0.850463
vt 0.015783 0.984883
vt 0.066606 0.850453
vt 0.420254 0.957083
vt 0.420254 0.895635
vt 0.486391 0.895635
vt 0.486391 0.957083
vt 0.354518 0.983511
vt 0.354518 0.844338
vt 0.416932 0.844338
vt 0.416932 0.983511
vt 0.021980 0.947762
vt 0.021980 0.890264
vt 0.083866 0.890264
vt 0.083866 0.947762
vn 0.0000 0.9975 0.0712
vn 0.0829 0.9966 0.0000
vn 0.0000 0.0000 -1.0000
vn 0.0000 1.0000 0.0000
vn 0.0829 -0.9966 0.0000
vn 0.0000 -0.9975 0.0712
vn 0.0000 -1.0000 0.0000
vn -1.0000 0.0000 0.0000
vn 1.0000 0.0000 0.0000
vn -0.0888 0.9961 -0.0000
usemtl Material.010
s off
f 4/1/1 12/2/1 47/3/1 43/4/1
f 2/5/2 4/1/2 43/4/2 42/6/2
f 37/7/3 26/8/3 22/9/3 35/10/3
f 7/11/4 15/12/4 16/13/4 5/14/4
f 15/12/4 14/15/4 17/16/4 16/13/4
f 14/15/4 13/17/4 18/18/4 17/16/4
f 13/17/4 12/2/4 19/19/4 18/18/4
f 35/20/5 34/21/5 41/22/5 50/23/5
f 36/24/6 40/25/6 55/26/6 51/27/6
f 38/28/6 37/29/6 52/30/6 53/31/6
f 39/32/6 38/28/6 53/31/6 54/33/6
f 14/15/1 15/12/1 44/34/1 49/35/1
f 40/25/6 39/32/6 54/33/6 55/26/6
f 10/36/3 29/37/3 31/38/3 9/39/3
f 30/40/7 32/41/7 62/42/7 60/43/7
f 29/44/4 27/45/4 57/46/4 59/47/4
f 32/48/3 24/49/3 25/50/3 33/51/3
f 11/52/3 27/53/3 29/37/3 10/36/3
f 28/54/8 29/55/8 59/56/8 58/57/8
f 43/58/3 47/59/3 52/60/3 50/61/3
f 27/53/3 11/52/3 3/62/3 23/63/3
f 8/64/3 33/51/3 25/50/3 6/65/3
f 20/66/8 21/67/8 22/68/8 23/69/8
f 1/70/8 20/66/8 23/69/8 3/71/8
f 32/72/8 33/73/8 63/74/8 62/75/8
f 26/76/9 56/77/9 57/78/9 27/79/9
f 30/80/3 39/81/3 40/82/3 32/48/3
f 28/83/3 38/84/3 39/81/3 30/80/3
f 26/8/3 37/7/3 38/84/3 28/83/3
f 26/8/3 27/53/3 23/63/3 22/9/3
f 32/48/3 40/82/3 36/85/3 24/49/3
f 21/67/8 34/86/8 35/87/8 22/68/8
f 41/88/8 42/89/8 43/90/8 50/91/8
f 55/92/3 44/93/3 45/94/3 51/95/3
f 37/29/6 35/96/6 50/97/6 52/30/6
f 52/60/3 47/59/3 48/98/3 53/99/3
f 53/99/3 48/98/3 49/100/3 54/101/3
f 54/101/3 49/100/3 44/93/3 55/92/3
f 15/12/1 7/11/1 45/102/1 44/34/1
f 19/19/4 12/2/4 4/1/4 2/5/4
f 7/11/10 5/14/10 46/103/10 45/102/10
f 12/2/1 13/17/1 48/104/1 47/3/1
f 13/17/1 14/15/1 49/35/1 48/104/1
f 9/39/3 31/38/3 33/51/3 8/64/3
f 26/105/7 28/106/7 58/107/7 56/108/7
f 30/80/3 31/38/3 29/37/3 28/83/3
f 31/109/9 30/110/9 60/111/9 61/112/9
f 33/113/4 31/114/4 61/115/4 63/116/4
o parkinglot_Cube.009
v -9.962500 1.100000 -3.000000
v -9.962500 1.100000 -15.000000
v -2.962500 1.100000 -3.000000
v -2.962500 1.100000 -15.000000
v -3.062500 1.100000 15.000000
v -3.062500 0.000000 15.000000
v -3.062500 0.000000 -3.000000
v -3.062500 1.100000 -15.000000
v -3.062500 1.100000 -3.000000
v -2.962500 1.100000 15.000000
vt 0.082431 0.639774
vt 0.020140 0.639774
vt 0.020140 0.639774
vt 0.082431 0.639774
vt 0.152448 0.512499
vt 0.152448 0.653372
vt 0.013588 0.653372
vt 0.013588 0.512499
vt 0.082431 0.576593
vt 0.083321 0.576593
vt 0.083321 0.638884
vt 0.082431 0.638884
vt 0.083321 0.638884
vt 0.082431 0.638884
vn -1.0000 0.0000 0.0000
vn 0.0000 1.0000 0.0000
usemtl Material.003
s off
f 72/117/11 70/118/11 69/119/11 68/120/11
f 65/121/12 64/122/12 72/123/12 71/124/12
f 67/125/12 71/126/12 72/127/12 66/128/12
f 66/128/12 72/127/12 68/129/12 73/130/12
